<?xml version="1.0" encoding="utf-8"?>
<!-- Generator: Adobe Illustrator 18.1.1, SVG Export Plug-In . SVG Version: 6.00 Build 0)  -->
<svg version="1.1" id="Sanger_Logo" xmlns="http://www.w3.org/2000/svg" xmlns:xlink="http://www.w3.org/1999/xlink" x="0px"
	 y="0px" viewBox="199.3 367.4 267.3 76.2" enable-background="new 199.3 367.4 267.3 76.2" xml:space="preserve">
<g>
	<g>
		<g>
			<path fill="#FFFFFF" d="M316.6,392.4c3.3-1.6,7.7-2.5,11.3-2.5c9.9,0,14,4.3,14,14.2v4.4c0,3.4,0.1,6,0.1,8.5
				c0.1,2.5,0.2,4.9,0.4,7.6H335c-0.3-1.7-0.3-4-0.4-5.1h-0.1c-2,3.8-6.2,5.8-10,5.8c-5.7,0-11.3-3.6-11.3-10c0-5.1,2.3-8,5.5-9.7
				c3.2-1.7,7.4-2,10.9-2h4.7c0-5.5-2.3-7.3-7.3-7.3c-3.6,0-7.2,1.5-10,3.7L316.6,392.4z M326.5,418.8c2.6,0,4.6-1.2,6-3.1
				s1.7-4.4,1.7-7h-3.6c-3.8,0-9.4,0.7-9.4,5.8C321.2,417.6,323.6,418.8,326.5,418.8z"/>
			<path fill="#FFFFFF" d="M345.8,390.7h8v4.6h0.1c2.6-3.9,6.3-5.4,10.7-5.4c7.7,0,11,5.7,11,13.3v21.4h-8.4v-18.1
				c0-4.1-0.1-9.7-5.5-9.7c-6.1,0-7.4,6.9-7.4,11.3v16.6h-8.4v-33.9H345.8z"/>
			<path fill="#FFFFFF" d="M410.6,390.7v30.5c0,9.2-3.6,17.9-17.2,17.9c-3.3,0-7.2-0.5-11.2-2.3l0.7-7.5c2.6,1.5,6.8,3,9.5,3
				c9.3,0,9.7-7.3,9.7-13.2H402c-1.6,2.9-5.4,5.4-10.1,5.4c-9.6,0-13.2-8-13.2-17.1c0-8.1,4.1-17.5,13.7-17.5c4.3,0,7.6,1.5,10,5.4
				h0.1v-4.6H410.6z M402.1,407.2c0-5.8-2.2-10.5-7.1-10.5c-5.7,0-7.6,5.5-7.6,10.7c0,4.6,2.3,10.2,7.2,10.2
				C400,417.6,402.1,412.8,402.1,407.2z"/>
			<path fill="#FFFFFF" d="M442.1,422.6c-3.1,1.7-6.6,2.7-11.2,2.7c-10.8,0-16.9-6.5-16.9-17.5c0-9.8,5-17.9,15-17.9
				c12.1,0,15.5,8.6,15.5,20.4h-22.5c0.4,5.5,4.1,8.6,9.3,8.6c4.1,0,7.6-1.6,10.8-3.4L442.1,422.6L442.1,422.6z M436.4,404.3
				c-0.2-4.3-2.2-7.9-6.9-7.9c-4.7,0-7.1,3.4-7.5,7.9H436.4z"/>
			<path fill="#FFFFFF" d="M447.5,390.7h7.5v7.7h0.1c0.4-3.1,3.9-8.5,8.9-8.5c0.8,0,1.7,0,2.6,0.3v8.9c-0.7-0.4-2.3-0.7-3.8-0.7
				c-6.9,0-6.9,8.9-6.9,13.8v12.4h-8.4V390.7z"/>
			<path fill="#FFFFFF" d="M308.5,397.7c-2.6-0.9-4.5-1.5-7.6-1.5c-2.3,0-5,0.9-5,3.8c0,5.4,14.7,2,14.7,14.2c0,7.9-6.8,11-13.6,11
				c-3.2,0-6.5-0.6-9.6-1.5l0.5-7.2c2.6,1.4,5.5,2.3,8.4,2.3c2.2,0,5.5-0.9,5.5-4.1c0-6.6-14.7-2.1-14.7-14.3
				c0-7.3,6.1-10.5,12.7-10.5c4,0,6.5,0.7,9.2,1.2L308.5,397.7z"/>
		</g>
		<g>
			<path fill="#FFFFFF" d="M290,429.8h-1.3v-1.7h1.3V429.8z M288.7,432.6h1.3V443h-1.3V432.6z"/>
			<path fill="#FFFFFF" d="M292.1,435.1c0-0.8,0-1.6-0.1-2.5h1.2v1.8h0.1c0.4-0.9,1.2-2.1,3.3-2.1c2.5,0,3.6,1.7,3.6,4v6.6h-1.3
				v-6.3c0-2-0.7-3.2-2.5-3.2c-2.3,0-3.1,2-3.1,3.8v5.7h-1.3L292.1,435.1L292.1,435.1z"/>
			<path fill="#FFFFFF" d="M301.7,441.5c0.8,0.4,1.7,0.7,2.7,0.7c1.2,0,2.3-0.7,2.3-1.8c0-2.5-5-2.1-5-5.1c0-2,1.7-2.8,3.3-2.8
				c0.6,0,1.7,0.1,2.5,0.4l-0.1,1.1c-0.7-0.3-1.6-0.5-2.3-0.5c-1.3,0-2.3,0.4-2.3,1.7c0,2,5.1,1.7,5.1,5.1c0,2.2-2,3-3.6,3
				c-1,0-2-0.1-2.9-0.5L301.7,441.5z"/>
			<path fill="#FFFFFF" d="M314.5,433.7h-2.3v6.7c0,0.9,0.4,1.7,1.4,1.7c0.5,0,0.8-0.1,1.2-0.2l0.1,1.1c-0.3,0.1-0.9,0.3-1.6,0.3
				c-2.3,0-2.3-1.6-2.3-3.5v-6h-2v-1.1h2v-2.5l1.3-0.4v3h2.3V433.7L314.5,433.7z"/>
			<path fill="#FFFFFF" d="M317.7,429.8h-1.3v-1.7h1.3V429.8z M316.4,432.6h1.3V443h-1.3V432.6z"/>
			<path fill="#FFFFFF" d="M325,433.7h-2.3v6.7c0,0.9,0.4,1.7,1.4,1.7c0.5,0,0.8-0.1,1.2-0.2l0.1,1.1c-0.3,0.1-0.9,0.3-1.6,0.3
				c-2.3,0-2.3-1.6-2.3-3.5v-6h-2v-1.1h2v-2.5l1.3-0.4v3h2.3L325,433.7L325,433.7z"/>
			<path fill="#FFFFFF" d="M334.6,440.5c0,0.8,0,1.6,0.1,2.5h-1.2v-1.8h-0.1c-0.4,0.9-1.2,2.1-3.3,2.1c-2.5,0-3.6-1.7-3.6-4v-6.7
				h1.3v6.3c0,2,0.7,3.2,2.5,3.2c2.3,0,3.1-2,3.1-3.8v-5.7h1.3V440.5L334.6,440.5z"/>
			<path fill="#FFFFFF" d="M341.9,433.7h-2.4v6.7c0,0.9,0.4,1.7,1.4,1.7c0.5,0,0.8-0.1,1.2-0.2l0.1,1.1c-0.3,0.1-0.9,0.3-1.6,0.3
				c-2.3,0-2.3-1.6-2.3-3.5v-6h-2v-1.1h2v-2.5l1.3-0.4v3h2.3L341.9,433.7L341.9,433.7z"/>
			<path fill="#FFFFFF" d="M350.3,442.6c-0.9,0.4-2,0.6-3,0.6c-3.4,0-4.7-2.3-4.7-5.5c0-3.2,1.7-5.5,4.4-5.5c2.9,0,4.1,2.3,4.1,5.2
				v0.7H344c0,2.2,1.2,4,3.4,4c0.9,0,2.3-0.4,2.9-0.8V442.6L350.3,442.6z M349.7,437.1c0-1.8-0.7-3.6-2.6-3.6s-3.1,1.9-3.1,3.6
				H349.7z"/>
		</g>
		<g>
			<path fill="#FFFFFF" d="M299.4,383h-1.5l-2.8-8.9H295l-2.8,8.9h-1.5l-3.3-10.4h1.4l2.7,8.9h0.1l2.9-8.9h1.5l2.8,8.9h0.1l2.8-8.9
				h1.3L299.4,383z"/>
			<path fill="#FFFFFF" d="M311.1,382.7c-0.9,0.4-2,0.6-3,0.6c-3.4,0-4.7-2.3-4.7-5.5c0-3.2,1.7-5.5,4.4-5.5c2.9,0,4.1,2.3,4.1,5.2
				v0.7h-7.1c0,2.2,1.2,4,3.4,4c0.9,0,2.3-0.4,2.9-0.8L311.1,382.7L311.1,382.7z M310.5,377.1c0-1.8-0.7-3.6-2.6-3.6
				s-3.1,1.9-3.1,3.6H310.5z"/>
			<path fill="#FFFFFF" d="M313.5,367.8h1.3V383h-1.3V367.8z"/>
			<path fill="#FFFFFF" d="M317.7,367.8h1.3V383h-1.3V367.8z"/>
			<path fill="#FFFFFF" d="M328.1,374c-0.7-0.3-1.5-0.5-2.2-0.5c-2.5,0-3.9,1.8-3.9,4.4c0,2.3,1.5,4.4,3.8,4.4
				c0.8,0,1.6-0.2,2.3-0.4l0.1,1.2c-0.9,0.3-1.7,0.4-2.7,0.4c-3.3,0-4.9-2.5-4.9-5.5c0-3.2,2-5.5,5.1-5.5c1.2,0,2.1,0.3,2.5,0.4
				L328.1,374z"/>
			<path fill="#FFFFFF" d="M333.6,372.4c3.3,0,4.9,2.6,4.9,5.5s-1.5,5.5-4.9,5.5c-3.3,0-4.9-2.6-4.9-5.5S330.2,372.4,333.6,372.4z
				 M333.6,382.2c2.3,0,3.4-2,3.4-4.4c0-2.4-1.2-4.4-3.4-4.4c-2.3,0-3.4,2-3.4,4.4C330.2,380.3,331.3,382.2,333.6,382.2z"/>
			<path fill="#FFFFFF" d="M352.6,383v-6.9c0-1.5-0.6-2.6-2.2-2.6c-1.4,0-2.8,1.2-2.8,3.8v5.7h-1.3v-6.9c0-1.5-0.6-2.6-2.2-2.6
				c-1.4,0-2.8,1.2-2.8,3.8v5.7h-1.3v-7.9c0-0.8,0-1.6-0.1-2.5h1.2v1.7h0.1c0.4-0.7,1-2,3.2-2c0.9,0,2.4,0.4,2.8,2.2h0.1
				c0.4-1.2,1.7-2.2,3.3-2.2c2.1,0,3.3,1.5,3.3,3.5v7.1L352.6,383L352.6,383z"/>
			<path fill="#FFFFFF" d="M363.1,382.7c-0.9,0.4-2,0.6-3,0.6c-3.4,0-4.7-2.3-4.7-5.5c0-3.2,1.7-5.5,4.4-5.5c2.9,0,4.1,2.3,4.1,5.2
				v0.7h-7.1c0,2.2,1.2,4,3.4,4c0.9,0,2.3-0.4,2.9-0.8V382.7L363.1,382.7z M362.5,377.1c0-1.8-0.7-3.6-2.6-3.6s-3.1,1.9-3.1,3.6
				H362.5z"/>
			<path fill="#FFFFFF" d="M376.5,373.8h-2.3v6.7c0,0.9,0.4,1.7,1.4,1.7c0.5,0,0.8-0.1,1.2-0.2l0.1,1.1c-0.3,0.1-0.9,0.3-1.6,0.3
				c-2.3,0-2.3-1.6-2.3-3.5v-6h-2v-1.1h2v-2.5l1.3-0.4v3h2.3L376.5,373.8L376.5,373.8z"/>
			<path fill="#FFFFFF" d="M378.4,375c0-1.2,0-1.6-0.1-2.3h1.3v2h0.1c0.4-1.2,1.3-2.3,2.7-2.3c0.3,0,0.7,0.1,0.9,0.1v1.3
				c-0.3-0.1-0.6-0.1-0.9-0.1c-2,0-2.6,2.3-2.6,4.1v5.1h-1.3L378.4,375L378.4,375z"/>
			<path fill="#FFFFFF" d="M392.8,380.6c0,0.8,0,1.6,0.1,2.5h-1.2v-1.8h-0.1c-0.4,0.9-1.2,2.1-3.3,2.1c-2.5,0-3.6-1.7-3.6-4v-6.6
				h1.3v6.3c0,2,0.7,3.2,2.5,3.2c2.3,0,3.1-2,3.1-3.8v-5.7h1.3V380.6z"/>
			<path fill="#FFFFFF" d="M394.4,381.5c0.8,0.4,1.7,0.7,2.7,0.7c1.2,0,2.3-0.7,2.3-1.8c0-2.5-5-2.1-5-5.1c0-2,1.7-2.8,3.3-2.8
				c0.6,0,1.7,0.1,2.5,0.4l-0.1,1.1c-0.7-0.3-1.6-0.5-2.3-0.5c-1.3,0-2.3,0.4-2.3,1.7c0,2,5.1,1.7,5.1,5.1c0,2.2-2,3-3.6,3
				c-1,0-2-0.1-2.9-0.5L394.4,381.5z"/>
			<path fill="#FFFFFF" d="M407.2,373.8h-2.3v6.7c0,0.9,0.4,1.7,1.4,1.7c0.5,0,0.8-0.1,1.2-0.2l0.1,1.1c-0.3,0.1-0.9,0.3-1.6,0.3
				c-2.3,0-2.3-1.6-2.3-3.5v-6h-2v-1.1h2v-2.5l1.3-0.4v3h2.3L407.2,373.8L407.2,373.8z"/>
		</g>
	</g>
	<g>
		<g>
			<path fill="#FFFFFF" d="M221.7,373.4c-0.2,0.6-0.4,1.2-0.5,2v2.4c0,0.6,0,1.3,0,2.3c0,0,0,0.8,0,1.6c1-2.5,2.8-4.7,5.5-6.5
				c2.3-1.6,4-2.6,7.1-4.4l2.7-1.6h-11.6C223.5,370.5,222.4,371.8,221.7,373.4z"/>
			<path fill="#FFFFFF" d="M225.7,437.7c1.5-1.2,3.2-2.2,8.6-5.5l2.8-1.7l4.4-2.6c5.5-3.2,9.9-5.7,11.6-9.7c0.2-0.6,0.4-1.2,0.5-2
				v-2.4c0-0.6,0-1.3,0-2.3c0,0,0-0.8,0-1.6c-1,2.5-2.8,4.7-5.5,6.5c-2.3,1.6-4,2.6-7.1,4.4l-4.1,2.3c-6.7,4-10.9,7-13.3,9.3
				c-2.3,2.3-2.4,5.3-2.4,6c0,0.4,0,1.9,0,3.3h0.8C222.9,440.2,224.2,438.9,225.7,437.7z"/>
			<g>
				<g>
					<g>
						<g>
							<path fill="#FFFFFF" d="M253.4,408.1c-0.2,0.9-0.5,1.3-0.9,2.1c-1.1-1.7-2.5-3.2-4.4-4.5c-2.3-1.6-4-2.6-7.1-4.4l-4-2.4l0,0
								c-3.2-1.9-5.7-3.6-7.9-5c0.7-0.4,5.1-3.1,5.1-3.1s0.6-0.3,0.8-0.4c0.3,0.1,2,1.2,2,1.2l4.5,2.6c5.5,3.2,9.9,5.7,11.6,9.7
								C253,404,253.8,405.8,253.4,408.1z"/>
						</g>
						<g>
							<path fill="#FFFFFF" d="M221.4,383.4c0.2-1.3,1-2.5,1-2.5c0.9,1.3,1.9,2.5,3.3,3.5c0,0,1.2,0.9,2,1.4
								c-1.8,1.2-3.2,2.3-4.3,3.5C221.5,386.8,221.2,384.8,221.4,383.4z"/>
						</g>
					</g>
				</g>
			</g>
		</g>
		<g>
			<path fill="#FFFFFF" d="M249.1,373.3c-1.5,1.2-3.2,2.2-8.6,5.5l-2.8,1.7l-4.4,2.6c-5.5,3.2-9.9,5.7-11.6,9.7
				c-0.2,0.6-0.4,1.2-0.5,2v2.4c0,0.6,0,1.3,0,2.3c0,0,0,0.8,0,1.6c1-2.5,2.8-4.7,5.5-6.5c2.3-1.6,4-2.6,7.1-4.4l4.1-2.4
				c6.7-4,10.9-7,13.3-9.3c2.3-2.3,2.4-5.3,2.4-6c0-0.4,0-1.9,0-3.4h-0.8C251.8,370.7,250.6,372.1,249.1,373.3z"/>
			<path fill="#FFFFFF" d="M253,437.5c0.2-0.6,0.4-1.2,0.5-2v-2.4c0-0.6,0-1.3,0-2.3c0,0,0-0.8,0-1.6c-1,2.5-2.8,4.7-5.5,6.5
				c-2.3,1.6-4,2.6-7.1,4.4l-2.7,1.6h11.5C251.3,440.5,252.4,439.1,253,437.5z"/>
			<g>
				<g>
					<g>
						<g>
							<path fill="#FFFFFF" d="M221.3,402.9c0.2-0.9,0.5-1.3,0.9-2.1c1.1,1.7,2.5,3.2,4.4,4.5c2.3,1.6,4,2.6,7.1,4.4l4,2.4l0,0
								c3.2,1.9,5.7,3.6,7.9,5c-0.7,0.4-5.1,3.1-5.1,3.1s-0.6,0.3-0.8,0.4c-0.3-0.1-2-1.2-2-1.2l-4.5-2.6c-5.5-3.2-9.9-5.7-11.6-9.7
								C221.8,407,221,405.2,221.3,402.9z"/>
						</g>
						<g>
							<path fill="#FFFFFF" d="M253.3,427.6c-0.2,1.2-1,2.5-1,2.5c-0.9-1.3-1.9-2.5-3.3-3.5c0,0-1.2-0.9-2-1.4
								c1.8-1.2,3.2-2.3,4.3-3.5C253.3,424.2,253.6,426.2,253.3,427.6z"/>
						</g>
					</g>
				</g>
			</g>
		</g>
	</g>
	<path fill="#FFFFFF" d="M275.4,443.6h-76.1v-76.2h76.1V443.6L275.4,443.6z M200.1,442.9h74.7v-74.7h-74.7V442.9z"/>
</g>
</svg>
